<svg id="canvas" height="100%" xmlns="http://www.w3.org/2000/svg" version="1.1" xmlns:xlink="http://www.w3.org/1999/xlink" viewBox="0 0 900 512"><rect width="900" height="512" fill="#f3f6fbff"></rect><path d="M81.97963406091014 254.95610557997907C49.366885141324076 275.98787120247005 10.620307089331448 286.13961368214655 -29.40059772220866 290.1665780312301C-69.42150253374876 294.1935423803136 -122.45947184743423 284.70619615804605 -158.1457948083304 279.1178916744801C-193.83211776922658 273.5295871909142 -213.64380231364714 278.4304661230501 -243.5185354875857 256.63675112983447C-273.39326866152425 234.84303613661882 -320.02958882280603 198.0170626744832 -337.39419385196175 148.35560171518614C-354.75879888111746 98.69414075588907 -347.11317241918886 11.125818020741463 -347.7061656625199 -41.33201462594786C-348.2991589058509 -93.78984727263719 -355.47843926526707 -129.47200302900313 -340.952153311948 -166.39139416494993C-326.4258673586289 -203.31078530089673 -290.81604998535937 -233.4690981382085 -260.5484499426053 -262.8483614416287C-230.2808498998513 -292.2276247450489 -197.22444755922635 -329.3185251276371 -159.34655305542378 -342.66697398547115C-121.46865855162122 -356.0154228433052 -75.50202789097386 -342.9145011755005 -33.28108291978998 -342.93905458863316C8.939862051393902 -342.9636080017658 55.09503763937528 -358.8966512678073 93.97911677167963 -342.8142944642672C132.86319590398398 -326.73193766072717 166.43013137176422 -277.5948410483304 200.02339187403618 -246.44491376739296C233.61665237630814 -215.2949864864555 270.7023366957269 -197.47844303927636 295.5386797853114 -155.91473077864245C320.3750228748959 -114.35101851800854 340.2884153047029 -47.2047445813659 349.0414504115432 2.937359796410476C357.79448551838357 53.07946417418685 378.5178161957258 118.09812473803697 348.0568904263532 144.9378954880159C317.59596465698064 171.77766623799482 210.6221051895484 145.6396159476235 166.27589579530786 163.97598429628397C121.92968640106733 182.31235264494444 114.59238298049621 233.9243399574881 81.97963406091014 254.95610557997907C49.366885141324076 275.98787120247005 10.620307089331448 286.13961368214655 -29.40059772220866 290.1665780312301 " fill="#fe6845ff"></path><path d="M1013.7910694106487 924.5838758365605C978.4773922922536 950.3500327636436 948.5655072636135 985.6532105994701 906.6419912419055 994.2899103096952C864.7184752201977 1002.9266100199203 804.408684971838 998.2024789471844 762.2499732804012 976.404074097911C720.0912615889642 954.6056692486376 687.8327561541975 899.522191648847 653.6897210932839 863.4994812140544C619.5466860323702 827.4767707792619 573.5714052012522 801.3882780239629 557.3917629149195 760.267811489156C541.2121206285867 719.1473449543491 556.6423457129139 664.0534374584702 556.6118673752874 616.7766820052129C556.5813890376609 569.4999265519557 543.473895961636 519.3715984812553 557.2088928891602 476.60727876961226C570.9438898166844 433.8429590579692 608.8270835429007 393.57963454622745 639.0218489404326 360.1907637353545C669.2166143379644 326.80189292448154 699.6403094883567 291.07084501038355 738.3774852743514 276.2740539043746C777.1146610603461 261.4772627983657 827.4465546468876 271.36593954761435 871.4449036564006 271.41001709930094C915.4432526659136 271.45409465098754 954.2022637218004 258.61969541789273 1002.3675793314295 276.5385192144941C1050.5328949410587 294.4573430110955 1117.5055167057392 344.1904745754215 1160.436797314176 378.92295987890907C1203.3680779226127 413.6554451823967 1245.283196999143 444.2709353209541 1259.9552629820503 484.93343103541963C1274.6273289649575 525.5959267498852 1250.8312048292403 576.1518661401972 1248.46919321162 622.8979341657025C1246.1071815939997 669.6440021912078 1267.4407164862191 729.2773334248691 1245.7831932763283 765.4098391884515C1224.1256700664376 801.5423449520339 1157.1894079298888 813.1639626391786 1118.5240539522756 839.6929687471968C1079.8586999746624 866.221974855215 1049.1047465290437 898.8177189094774 1013.7910694106487 924.5838758365605C978.4773922922536 950.3500327636436 948.5655072636135 985.6532105994701 906.6419912419055 994.2899103096952 " fill="#fe6845ff" transform="matrix(-1,1.2246467991473532e-16,-1.2246467991473532e-16,-1,1814.70361328125,1265.3594970703125)"></path></svg>